
<svg xmlns="http://www.w3.org/2000/svg" data-name="Слой 1" viewBox="0 0 128 160" x="0px" y="0px"><title>Internet, Globe, Website, Web, Link, url</title><path d="M59.87,127.87H60a2,2,0,0,0,1.25-3.55,2,2,0,0,0-1.4-1.62C50,119.77,42.19,111.1,37.23,98.59A101.36,101.36,0,0,1,62,95.14V98a2,2,0,0,0,4,0V95.13c1.14,0,2.28.05,3.41.11a2,2,0,0,0,.2-4c-1.19-.06-2.4-.09-3.6-.11V66H98.67a2,2,0,0,0,2-2,102.18,102.18,0,0,0-5-32.11A71.74,71.74,0,0,0,110,25.54a59.63,59.63,0,0,1,13.87,34.86,2,2,0,1,0,4-.24A63.65,63.65,0,0,0,112,21.64l-.11-.12a63.92,63.92,0,0,0-95.57-.11,2,2,0,0,0-.43.48l0,.06A63.95,63.95,0,0,0,59.87,127.87ZM50,122.35a59.88,59.88,0,0,1-29.47-17,68.3,68.3,0,0,1,12.86-5.62C37.35,109.72,43,117.53,50,122.35ZM4,66H27.36a100.92,100.92,0,0,0,4.71,30,71.4,71.4,0,0,0-14.2,6.33A59.8,59.8,0,0,1,4,66ZM18,25.55A71.76,71.76,0,0,0,32.3,31.89,101.44,101.44,0,0,0,27.36,62H4.05A59.71,59.71,0,0,1,18,25.55ZM66,4.12C76.14,5.25,85,14.91,90.6,29.23A101.45,101.45,0,0,1,66,32.64ZM62,32.64a101.46,101.46,0,0,1-24.6-3.4C43,14.91,51.86,5.25,62,4.12Zm0,4V62H31.36A99,99,0,0,1,36,33,105.35,105.35,0,0,0,62,36.64Zm0,54.5a105.27,105.27,0,0,0-26.14,3.69A97.34,97.34,0,0,1,31.36,66H62ZM96.64,62H66V36.64A105.35,105.35,0,0,0,92,33,99,99,0,0,1,96.64,62Zm10.68-39.49a68.69,68.69,0,0,1-13,5.62C90.66,18.64,85.55,11,79.55,6.06A60.09,60.09,0,0,1,107.32,22.51ZM48.46,6.05c-6,4.92-11.11,12.59-14.8,22.07a68.72,68.72,0,0,1-12.94-5.6A60,60,0,0,1,48.46,6.05Z"/><path d="M80,110a2,2,0,0,0,2.83,0L110,82.82A2,2,0,0,0,107.18,80L80,107.18A2,2,0,0,0,80,110Z"/><path d="M124,66a13.86,13.86,0,0,0-19.55,0L95,75.47a13.83,13.83,0,0,0-4,10.77A2,2,0,1,0,95,86,9.83,9.83,0,0,1,97.8,78.3l9.44-9.44a9.83,9.83,0,0,1,13.9,13.9L111.7,92.2A9.8,9.8,0,0,1,103.79,95a2,2,0,0,0-.38,4q.68.07,1.36.07a13.76,13.76,0,0,0,9.76-4L124,85.59A13.86,13.86,0,0,0,124,66Z"/><path d="M85.75,90.95a13.84,13.84,0,0,0-10.28,4L66,104.41A13.83,13.83,0,0,0,85.59,124L95,114.52A13.85,13.85,0,0,0,99,104a2,2,0,0,0-4,.21,9.84,9.84,0,0,1-2.85,7.48l-9.44,9.44a9.83,9.83,0,0,1-13.9-13.9L78.3,97.8a9.87,9.87,0,0,1,7.31-2.86,2,2,0,1,0,.14-4Z"/></svg>